# xmcd
#
# Track frame offsets: 
#        150
#        16874
#        30912
#        46939
#        60906
#        76603
#        97496
#        115660
#        139429
#        162322
#        179742
#        195543
#        212347
#        237229
#        254476
#        273369
#        286929
#
# Disc length: 4460 seconds
#
# Revision: 0
# Processed by: cddbd v1.5.2PL0 Copyright (c) Steve Scherf et al.
# Submitted via: ExactAudioCopy v0.95b4
#
DISCID=e5116a11
DTITLE=Eric Clapton - Live Irving Plaza 11_27_94 Disc 1
DYEAR=1994
DGENRE=Rock
TTITLE0=Motherless CHild
TTITLE1=Malted Milk
TTITLE2=How Long Blues
TTITLE3=Kidman Blues
TTITLE4=County Jail Blues
TTITLE5=Forty Four
TTITLE6=Blues Leave Me Alone
TTITLE7=Goin' Away Baby
TTITLE8=Standing Around Crying
TTITLE9=Hoochie Coochie Man
TTITLE10=It Hurts Me Too
TTITLE11=Blues Before Sunrise
TTITLE12=Third Degree
TTITLE13=Reconsider Baby
TTITLE14=Sinner's Brayer
TTITLE15=Can't Judge Nobody
TTITLE16=Early In The Morning
EXTD=
EXTT0=
EXTT1=
EXTT2=
EXTT3=
EXTT4=
EXTT5=
EXTT6=
EXTT7=
EXTT8=
EXTT9=
EXTT10=
EXTT11=
EXTT12=
EXTT13=
EXTT14=
EXTT15=
EXTT16=
PLAYORDER=
